<?xml version="1.0" standalone="no"?>
<!DOCTYPE svg PUBLIC "-//W3C//DTD SVG 20010904//EN"
 "http://www.w3.org/TR/2001/REC-SVG-20010904/DTD/svg10.dtd">
<svg version="1.0" xmlns="http://www.w3.org/2000/svg"
 width="84.000000pt" height="84.000000pt" viewBox="0 0 84.000000 84.000000"
 preserveAspectRatio="xMidYMid meet">
<metadata>
Created by potrace 1.11, written by Peter Selinger 2001-2013
</metadata>
<g transform="translate(0.000000,84.000000) scale(0.100000,-0.100000)"
fill="#000000" stroke="none">
<path d="M295 811 c-18 -4 -37 -18 -50 -38 -11 -18 -25 -32 -31 -33 -6 0 -17
-6 -23 -14 -10 -12 -8 -18 6 -33 18 -17 18 -21 2 -83 -9 -36 -15 -81 -13 -100
1 -19 -2 -55 -7 -80 -5 -25 -11 -58 -14 -75 -7 -40 -7 -213 0 -225 7 -12 146
-96 172 -104 24 -8 55 17 47 39 -8 21 27 34 111 41 51 4 80 2 90 -6 17 -14 87
-9 92 7 3 6 -9 19 -26 27 -19 11 -33 28 -41 53 -8 26 -34 59 -83 105 -62 58
-69 68 -52 73 11 4 35 13 53 21 21 9 47 12 67 8 33 -6 34 -5 29 22 -9 47 -31
64 -84 64 -60 0 -77 17 -57 57 8 15 25 37 37 48 25 23 52 70 44 78 -8 8 -58
-9 -104 -34 -22 -12 -42 -21 -44 -18 -14 14 -13 77 1 98 15 23 14 24 -3 18
-17 -6 -17 -6 1 8 35 28 22 74 -20 70 -14 -2 -27 1 -31 6 -6 10 -23 10 -69 0z
m145 -328 c0 -5 -13 -17 -28 -27 l-27 -19 24 26 c26 28 31 32 31 20z m7 -65
c-3 -7 -5 -2 -5 12 0 14 2 19 5 13 2 -7 2 -19 0 -25z m-222 -206 c-3 -3 -11 0
-18 7 -9 10 -8 11 6 5 10 -3 15 -9 12 -12z m245 -29 c-11 -17 -11 -17 -6 0 3
10 6 24 7 30 0 9 2 9 5 0 3 -7 0 -20 -6 -30z"/>
</g>
</svg>
